<svg width="2278" height="2333" viewBox="0 0 2278 2333" fill="none" xmlns="http://www.w3.org/2000/svg">
<path d="M1497 619C1928.33 619 2278 968.666 2278 1400C2278 1640.66 2168.15 1856.73 1997 2000L1497.83 1400H716C716 1330.87 724.983 1263.83 741.844 1200H800V1047.28C928.852 793.164 1192.59 619 1497 619Z" fill="#FEB914"/>
<path fill-rule="evenodd" clip-rule="evenodd" d="M1000 2000H998.827L500 1400L1.16992 2000H0V0H1000V2000ZM200 1200H400V1000H200V1200ZM600 1200H800V1000H600V1200ZM200 800H400V600H200V800ZM600 800H800V600H600V800ZM200 400H400V200H200V400ZM600 400H800V200H600V400Z" fill="#3CB4B9"/>
<path d="M72.8487 2125.02V2186.26H85.7654C96.6638 2186.26 105.275 2183.23 111.599 2177.17C117.922 2171.1 121.084 2162.75 121.084 2152.1C121.084 2134.05 111.128 2125.02 91.2146 2125.02H72.8487ZM93.031 2067.01C126.264 2067.01 151.358 2074.29 168.311 2088.84C185.264 2103.39 193.74 2124.95 193.74 2153.52C193.74 2181.95 184.995 2204.32 167.503 2220.62C149.878 2236.79 125.053 2244.88 93.031 2244.88H72.8487V2333H1V2067.01H93.031Z" fill="black"/>
<path d="M410.049 2333H236.078V2067.01H307.927V2274.99H410.049V2333Z" fill="black"/>
<path d="M693.824 2333H615.315L602.398 2283.08H516.018L502.698 2333H423.785L510.367 2066H606.233L693.824 2333ZM530.953 2224.26H587.463C570.779 2161.2 561.226 2123.07 558.804 2109.86C556.113 2126.57 546.83 2164.7 530.953 2224.26Z" fill="black"/>
<path d="M975.492 2067.01V2333H881.443L784.367 2145.64H782.752C785.039 2176.09 786.183 2198.59 786.183 2213.14V2333H722.609V2067.01H816.456L912.927 2251.95H914.138C912.389 2226.08 911.515 2204.52 911.515 2187.27V2067.01H975.492Z" fill="black"/>
<path d="M1190.55 2274.39V2333H1032.93V2067.01H1190.55V2124.82H1104.78V2166.66H1184.29V2224.26H1104.78V2274.39H1190.55Z" fill="black"/>
<path d="M1464.86 2067.01V2333H1392.81V2224.66H1309.26V2333H1237.21V2067.01H1309.26V2165.65H1392.81V2067.01H1464.86Z" fill="black"/>
<path d="M1763.57 2333H1685.06L1672.14 2283.08H1585.76L1572.44 2333H1493.53L1580.11 2066H1675.98L1763.57 2333ZM1600.7 2224.26H1657.21C1640.52 2161.2 1630.97 2123.07 1628.55 2109.86C1625.86 2126.57 1616.57 2164.7 1600.7 2224.26Z" fill="black"/>
<path d="M1888.02 2221.63H1864.2V2277.62H1889.43C1911.76 2277.62 1922.93 2268.12 1922.93 2249.12C1922.93 2240.23 1919.9 2233.42 1913.85 2228.71C1907.93 2223.99 1899.32 2221.63 1888.02 2221.63ZM1864.2 2121.38V2169.08H1885.8C1896.16 2169.08 1904.09 2166.99 1909.61 2162.82C1915.26 2158.5 1918.09 2152.17 1918.09 2143.82C1918.09 2128.86 1906.85 2121.38 1884.38 2121.38H1864.2ZM1792.35 2333V2067.01H1884.99C1921.05 2067.01 1947.82 2072.4 1965.31 2083.18C1982.81 2093.96 1991.55 2110.67 1991.55 2133.31C1991.55 2148.26 1987.72 2161 1980.05 2171.51C1972.51 2182.02 1962.49 2188.82 1949.98 2191.92V2193.74C1966.26 2198.05 1978.16 2205.26 1985.7 2215.37C1993.23 2225.34 1997 2238.61 1997 2255.18C1997 2279.3 1987.92 2298.3 1969.75 2312.18C1951.72 2326.06 1927.03 2333 1895.69 2333H1792.35Z" fill="black"/>
<path d="M1997 2000H999L999.002 2000H998.816L500 1400H1497.83L1997 2000Z" fill="#E20084"/>
</svg>
